PathFileType	4	(X/Y/Z)	/Users/itak/Documents/Research/Walk-IL/dataset/trc/00382_00012.trc
DataRate	CameraRate	NumFrames	NumMarkers	Units	OrigDataRate	OrigDataStartFrame	OrigNumFrames
100.000000	100.000000	4	54	mm	100.000000	210	560
Frame#	Time	RPSI			LPSI			L3			STRN			T10			C7			CLAV			RBAK			LBAK			LSHO			LUPA			LAEL			LAOL			LWTS			LWPS			LFRA			LIFD			LHPS			LHTS			RSHO			RUPA			RAEL			RAOL			RWTS			RWPS			RFRA			RIFD			RHPS			RBHD			LFHD			RFHD			LBHD			LHIP			RHIP			RASI			LASI			LKNE			LTHI			LANK			LTIP			LTOE			LMT1			LMT5			LHEE			RKNE			RTHI			RANK			RTIP			RTOE			RMT1			RMT5			RHEE			RHTS			*53			
		X1	Y1	Z1	X2	Y2	Z2	X3	Y3	Z3	X4	Y4	Z4	X5	Y5	Z5	X6	Y6	Z6	X7	Y7	Z7	X8	Y8	Z8	X9	Y9	Z9	X10	Y10	Z10	X11	Y11	Z11	X12	Y12	Z12	X13	Y13	Z13	X14	Y14	Z14	X15	Y15	Z15	X16	Y16	Z16	X17	Y17	Z17	X18	Y18	Z18	X19	Y19	Z19	X20	Y20	Z20	X21	Y21	Z21	X22	Y22	Z22	X23	Y23	Z23	X24	Y24	Z24	X25	Y25	Z25	X26	Y26	Z26	X27	Y27	Z27	X28	Y28	Z28	X29	Y29	Z29	X30	Y30	Z30	X31	Y31	Z31	X32	Y32	Z32	X33	Y33	Z33	X34	Y34	Z34	X35	Y35	Z35	X36	Y36	Z36	X37	Y37	Z37	X38	Y38	Z38	X39	Y39	Z39	X40	Y40	Z40	X41	Y41	Z41	X42	Y42	Z42	X43	Y43	Z43	X44	Y44	Z44	X45	Y45	Z45	X46	Y46	Z46	X47	Y47	Z47	X48	Y48	Z48	X49	Y49	Z49	X50	Y50	Z50	X51	Y51	Z51	X52	Y52	Z52	X53	Y53	Z53	X54	Y54	Z54	

211	2.1	-1607.4404296875	987.3693237304688	197.5769805908203	-1614.443603515625	975.3411865234375	64.74041748046875	-1607.538452148438	1062.756225585938	137.0345458984375	-1352.553833007812	1202.529174804688	142.0343170166016	-1606.286987304688	1166.6552734375	132.7225646972656	-1549.637939453125	1411.931884765625	128.4626922607422	-1400.16015625	1323.7626953125	140.6155242919922	-1602.898315429688	1267.257202148438	191.8797454833984	-1563.398803710938	1377.566162109375	24.09320259094238	-1472.978149414062	1386.390014648438	-23.25550842285156	-1501.177978515625	1270.41064453125	-92.732177734375	-1475.278198242188	1074.929321289062	-114.6843185424805	-1541.12841796875	1051.952514648438	-65.35752868652344	-1340.059326171875	902.134765625	-62.77750778198242	-1384.793579101562	863.0491943359375	-120.6829605102539	-1439.928344726562	978.746337890625	-120.0198364257812	-1282.751708984375	736.0439453125	-45.76980972290039	-1337.397583007812	790.5792236328125	-103.8566970825195	-1285.025756835938	818.7724609375	-78.28499603271484	-1500.934814453125	1385.746215820312	289.4727478027344	-1518.598510742188	1320.956787109375	348.3381958007812	-1521.21484375	1057.448974609375	388.8811645507812	-1541.498046875	1050.122192382812	295.7563781738281	-1395.235107421875	838.9276733398438	366.9330139160156	-1451.90966796875	823.8153686523438	413.9024963378906	-1498.706298828125	991.426025390625	403.4006042480469	-1403.740356445312	669.2210083007812	345.5294189453125	-1449.600952148438	734.7237548828125	405.4731750488281	-1514.65771484375	1598.656860351562	198.7227630615234	-1370.473754882812	1595.076782226562	61.68316650390625	-1382.687133789062	1611.872802734375	182.5590057373047	-1515.80712890625	1573.405029296875	39.22746658325195	-1524.933227539062	964.514404296875	-48.46300506591797	-1525.085693359375	959.7429809570312	312.3724975585938	-1391.405883789062	959.0008544921875	258.059326171875	-1413.520874023438	958.1577758789062	-3.583034992218018	-1363.771606445312	486.4749450683594	-17.74923706054688	-1399.792846679688	618.7489624023438	-30.15994834899902	-1605.337280273438	99.05259704589844	-13.63582897186279	-1488.050537109375	284.3210754394531	-29.34282302856445	-1406.884155273438	45.87010192871094	50.67911911010742	-1479.839599609375	62.62167739868164	81.68701171875	-1488.60595703125	51.56718826293945	-23.88900566101074	-1640.280639648438	113.7211456298828	43.3289680480957	-1491.7265625	464.6887512207031	270.2780456542969	-1453.089965820312	724.6087646484375	305.7640380859375	-1594.943481445312	56.56625366210938	232.2844848632812	-1495.0791015625	336.8965454101562	248.3731536865234	-1423.555297851562	40.7349739074707	153.6004333496094	-1499.442993164062	43.07726287841797	130.4342041015625	-1510.293090820312	47.97443389892578	230.4283599853516	-1672.157836914062	44.34869384765625	185.6083526611328	-1384.922607421875	730.9640502929688	381.104248046875	nan	nan	nan	
212	2.11	-1605.40185546875	987.5706176757812	198.1644897460938	-1612.2724609375	974.9998168945312	65.36042785644531	-1605.345947265625	1062.833374023438	137.8621368408203	-1348.96044921875	1202.000854492188	142.3241882324219	-1603.813720703125	1166.812133789062	133.7420654296875	-1545.990600585938	1411.883056640625	129.4010314941406	-1396.693237304688	1323.287841796875	140.9573822021484	-1599.563354492188	1267.41845703125	193.0087585449219	-1560.287475585938	1377.535278320312	25.07773208618164	-1470.037719726562	1386.145263671875	-22.62808418273926	-1499.069702148438	1270.222045898438	-91.97878265380859	-1473.37841796875	1074.849853515625	-114.1522979736328	-1538.863403320312	1051.7529296875	-64.3785400390625	-1337.419067382812	902.9400634765625	-62.6976203918457	-1381.358642578125	863.9571533203125	-120.7478561401367	-1437.550048828125	978.96826171875	-119.7093353271484	-1278.761840820312	737.4415283203125	-46.853271484375	-1333.359008789062	791.8840942382812	-104.4996185302734	-1281.1875	820.4093627929688	-78.73462677001953	-1496.792724609375	1385.548828125	290.2377014160156	-1514.432861328125	1320.821166992188	349.1612243652344	-1518.205810546875	1057.4189453125	389.9590759277344	-1538.588012695312	1050.047729492188	296.8713073730469	-1393.944702148438	837.89794921875	368.5951232910156	-1450.673828125	823.5668334960938	415.7135009765625	-1496.132202148438	991.3626708984375	404.5995178222656	-1404.1435546875	668.030517578125	348.4245910644531	-1449.19775390625	734.5103759765625	408.0246276855469	-1510.022583007812	1598.171875	200.3009948730469	-1366.75146484375	1594.828247070312	62.40621566772461	-1378.19775390625	1611.066284179688	183.4418640136719	-1512.286499023438	1573.762817382812	40.64946746826172	-1522.196166992188	964.2490234375	-47.54155731201172	-1523.4140625	959.9788208007812	313.2334594726562	-1389.474975585938	958.6417236328125	259.4548034667969	-1411.139282226562	957.9692993164062	-2.116114616394043	-1351.115844726562	489.0389709472656	-16.20721435546875	-1389.94189453125	620.7705688476562	-28.88175392150879	-1598.545166015625	106.0990447998047	-13.05806636810303	-1477.159790039062	288.1922302246094	-28.0103816986084	-1402.9423828125	46.94429397583008	53.28873443603516	-1475.294799804688	65.41904449462891	83.74988555908203	-1483.2890625	54.76209259033203	-22.1857795715332	-1633.586791992188	121.5208892822266	43.4888916015625	-1492.38818359375	464.5981750488281	271.9488830566406	-1452.501831054688	724.5101318359375	307.4081420898438	-1595.02978515625	56.47967910766602	232.3789367675781	-1495.75341796875	336.8384094238281	249.7441101074219	-1423.742431640625	40.82028579711914	153.7046813964844	-1499.485717773438	43.18754959106445	130.6980133056641	-1510.57275390625	47.90670776367188	230.7301788330078	-1672.233520507812	44.30414199829102	185.6051940917969	-1384.626098632812	729.934326171875	383.4886779785156	nan	nan	nan	
213	2.12	-1603.149169921875	987.747802734375	198.7196044921875	-1609.82177734375	974.7670288085938	65.93932342529297	-1602.929443359375	1062.930908203125	138.6304779052734	-1345.495849609375	1201.505615234375	142.6227722167969	-1601.217407226562	1166.98828125	134.7038421630859	-1542.252807617188	1411.858276367188	130.2538757324219	-1393.117553710938	1322.897705078125	141.2699127197266	-1596.132690429688	1267.601440429688	194.0443725585938	-1557.0478515625	1377.51806640625	25.99074935913086	-1466.969970703125	1385.93603515625	-22.06083869934082	-1496.849731445312	1270.077026367188	-91.29239654541016	-1471.566040039062	1074.748901367188	-113.7576599121094	-1536.574829101562	1051.611694335938	-63.34370803833008	-1334.848876953125	903.6444702148438	-62.82703399658203	-1378.164794921875	864.7461547851562	-120.9215545654297	-1435.353759765625	979.1235961914062	-119.529182434082	-1275.098876953125	738.69384765625	-47.82305526733398	-1329.676025390625	792.9976806640625	-105.1404342651367	-1277.642211914062	821.7832641601562	-79.23121643066406	-1492.625732421875	1385.419921875	290.9195861816406	-1510.223999023438	1320.73828125	349.90380859375	-1515.01904296875	1057.418579101562	390.93310546875	-1535.539672851562	1050.021850585938	297.8904113769531	-1392.53955078125	836.9190673828125	370.1023864746094	-1449.240356445312	823.4199829101562	417.4209594726562	-1493.36328125	991.3628540039062	405.6801452636719	-1404.309936523438	666.9412231445312	351.1980590820312	-1448.645874023438	734.3999633789062	410.5007934570312	-1505.24951171875	1597.735961914062	201.8097076416016	-1362.890014648438	1594.613403320312	63.07282638549805	-1373.557006835938	1610.281616210938	184.2564086914062	-1508.63916015625	1574.20068359375	41.99526214599609	-1519.148071289062	964.149658203125	-46.65655136108398	-1521.555786132812	960.1393432617188	314.0541687011719	-1387.36669921875	958.3047485351562	260.8397216796875	-1408.472534179688	957.940185546875	-0.6609363555908203	-1338.862426757812	491.7450866699219	-14.65109348297119	-1380.563354492188	622.9478759765625	-27.66802215576172	-1590.58984375	112.4236679077148	-12.51826477050781	-1465.864501953125	291.7445373535156	-26.66379547119141	-1397.701538085938	48.70242309570312	56.46817779541016	-1469.690551757812	68.53008270263672	86.17613220214844	-1476.4560546875	58.10629653930664	-20.15411949157715	-1626.026000976562	128.4312286376953	43.47216033935547	-1493.033569335938	464.51904296875	273.5424194335938	-1451.741088867188	724.3773803710938	308.9226684570312	-1595.0927734375	56.41342544555664	232.4638061523438	-1496.430786132812	336.7878723144531	251.0501251220703	-1423.897338867188	40.90336608886719	153.8017120361328	-1499.513427734375	43.30250549316406	130.9536437988281	-1510.841430664062	47.82788467407227	231.0221862792969	-1672.3134765625	44.26115417480469	185.607666015625	-1384.148315429688	728.989013671875	385.7445678710938	nan	nan	nan	
214	2.13	-1600.673950195312	987.900634765625	199.2544555664062	-1607.091430664062	974.6487426757812	66.48223114013672	-1600.273315429688	1063.052001953125	139.3557891845703	-1342.17138671875	1201.037963867188	142.9501190185547	-1598.477294921875	1167.1875	135.6050109863281	-1538.421875	1411.856689453125	131.0255737304688	-1389.426879882812	1322.58935546875	141.5780944824219	-1592.600219726562	1267.810913085938	194.9832763671875	-1553.662719726562	1377.514282226562	26.83467864990234	-1463.749145507812	1385.7587890625	-21.53888702392578	-1494.471313476562	1269.973388671875	-90.65275573730469	-1469.804321289062	1074.629638671875	-113.4788436889648	-1534.248168945312	1051.530639648438	-62.26639938354492	-1332.291381835938	904.2396240234375	-63.15299987792969	-1375.231323242188	865.3897094726562	-121.1891403198242	-1433.326782226562	979.208740234375	-119.4656829833984	-1271.74755859375	739.7530517578125	-48.71796417236328	-1326.348022460938	793.8857421875	-105.7700042724609	-1274.378540039062	822.8688354492188	-79.80250549316406	-1488.432250976562	1385.363037109375	291.5280151367188	-1505.98876953125	1320.7177734375	350.5743103027344	-1511.669677734375	1057.453369140625	391.8018493652344	-1532.367309570312	1050.060913085938	298.8138732910156	-1391.00732421875	836.0078735351562	371.4522705078125	-1447.607666015625	823.3814697265625	419.0116271972656	-1490.4140625	991.4298706054688	406.6443176269531	-1404.242065429688	665.968505859375	353.8502197265625	-1447.914306640625	734.4002075195312	412.8671569824219	-1500.365966796875	1597.359375	203.2483978271484	-1358.883422851562	1594.420166015625	63.6824951171875	-1368.772583007812	1609.52685546875	184.9986572265625	-1504.855590820312	1574.7001953125	43.26527786254883	-1515.808227539062	964.22119140625	-45.80927658081055	-1519.47998046875	960.2123413085938	314.8351440429688	-1385.052001953125	957.9959716796875	262.1874694824219	-1405.54345703125	958.0638427734375	0.7644234299659729	-1327.084594726562	494.5478820800781	-13.04981899261475	-1371.708251953125	625.212890625	-26.46757316589355	-1581.459594726562	117.7819061279297	-11.94670486450195	-1454.237670898438	294.8953552246094	-25.2780647277832	-1390.91162109375	51.00228881835938	60.02149963378906	-1462.778930664062	71.79182434082031	88.85407257080078	-1468.041259765625	61.42461776733398	-17.86163711547852	-1617.52734375	134.2017822265625	43.42023468017578	-1493.628295898438	464.4485778808594	275.0272216796875	-1450.786376953125	724.2063598632812	310.2911376953125	-1595.134521484375	56.35800552368164	232.5453033447266	-1497.07470703125	336.7409362792969	252.2728424072266	-1424.017700195312	40.98764038085938	153.8972625732422	-1499.527954101562	43.42063522338867	131.1941833496094	-1511.073608398438	47.73832321166992	231.2878570556641	-1672.39697265625	44.22157287597656	185.6175537109375	-1383.470947265625	728.1499633789062	387.8649291992188	nan	nan	nan	
